<svg width="212" height="252" viewBox="0 0 212 252" fill="none" xmlns="http://www.w3.org/2000/svg">
<g filter="url(#filter0_d_11_109)">
<path d="M97.0452 68.1975C99.6513 52.4566 100.954 44.5862 104.847 44.2719C108.739 43.9575 111.289 51.5169 116.387 66.6356L131.924 112.713C132.129 113.321 132.232 113.624 132.294 113.938C132.357 114.251 132.38 114.571 132.424 115.21L135.507 159.25C135.654 161.342 135.727 162.388 136.19 163.296C136.654 164.204 137.458 164.877 139.067 166.222L159.849 183.603C161.246 184.772 161.944 185.356 162.385 186.114C162.536 186.373 162.664 186.646 162.766 186.928C163.064 187.752 163.064 188.663 163.064 190.484V190.484C163.064 192.937 163.064 194.163 162.564 195.195C162.395 195.546 162.184 195.876 161.938 196.178C161.213 197.066 160.101 197.584 157.877 198.618L109.77 220.997C107.685 221.967 106.643 222.452 105.532 222.45C104.421 222.448 103.38 221.959 101.299 220.981L55.0656 199.256C51.9309 197.783 50.3635 197.047 49.5796 195.643C48.7957 194.239 48.9913 192.518 49.3823 189.077L50.8202 176.423C50.935 175.413 50.9923 174.909 51.1482 174.429C51.3042 173.949 51.5545 173.507 52.0552 172.623L90.3222 105.066C90.7584 104.295 90.9765 103.91 91.1232 103.495C91.27 103.08 91.3422 102.644 91.4868 101.77L97.0452 68.1975Z" fill="url(#paint0_linear_11_109)" shape-rendering="crispEdges"/>
<path d="M157.666 198.165L109.559 220.544C107.432 221.534 106.507 221.952 105.533 221.95C104.559 221.948 103.635 221.526 101.512 220.529L55.2782 198.804C53.7005 198.062 52.5554 197.523 51.7035 196.998C50.8625 196.479 50.3515 196 50.0162 195.399C49.6809 194.798 49.5406 194.112 49.5404 193.124C49.5401 192.123 49.6823 190.865 49.8791 189.133L51.3171 176.479C51.4339 175.451 51.487 175.004 51.6238 174.584C51.7605 174.163 51.9801 173.77 52.4903 172.87L90.7573 105.312L90.7823 105.268C91.1948 104.54 91.4332 104.119 91.5947 103.662C91.7562 103.205 91.8351 102.728 91.9718 101.902L91.9801 101.852L97.5385 68.2792C98.8439 60.3946 99.8162 54.5272 100.944 50.5874C101.509 48.6161 102.1 47.1737 102.764 46.2135C103.418 45.2665 104.108 44.8331 104.887 44.7702C105.666 44.7073 106.417 45.0243 107.215 45.8541C108.024 46.6953 108.839 48.0241 109.712 49.8793C111.458 53.5871 113.359 59.2225 115.913 66.7954L131.451 112.873C131.659 113.492 131.749 113.761 131.804 114.036C131.859 114.311 131.88 114.594 131.926 115.245L135.008 159.285L135.017 159.407C135.155 161.382 135.235 162.524 135.745 163.523C136.255 164.523 137.134 165.257 138.652 166.527L138.746 166.606L159.528 183.987C160.953 185.178 161.567 185.701 161.953 186.365C162.089 186.599 162.204 186.844 162.296 187.098C162.557 187.821 162.564 188.627 162.564 190.484C162.564 191.719 162.564 192.614 162.503 193.331C162.444 194.038 162.328 194.536 162.114 194.977C161.962 195.293 161.772 195.59 161.55 195.862C161.241 196.241 160.838 196.557 160.221 196.909C159.597 197.266 158.786 197.644 157.666 198.165Z" stroke="black" shape-rendering="crispEdges"/>
</g>
<path d="M145.222 200.898L109.79 219.975C108.621 220.604 107.774 221.06 107.063 221.361C106.361 221.658 105.824 221.79 105.283 221.79C104.743 221.79 104.206 221.658 103.504 221.36C102.793 221.058 101.946 220.602 100.778 219.972L59.9279 197.946C57.8758 196.839 56.3812 196.032 55.3191 195.262C54.2687 194.501 53.7022 193.818 53.4447 192.986C53.1872 192.154 53.2688 191.27 53.7054 190.049C54.1469 188.814 54.9243 187.303 55.9925 185.231L95.3308 108.918L95.3558 108.87C95.7685 108.069 96.007 107.607 96.1546 107.107C96.3022 106.607 96.3533 106.089 96.4417 105.193L96.447 105.138L98.8809 80.4761C99.8852 70.2993 100.635 62.7063 101.647 57.6085C102.153 55.0563 102.717 53.1756 103.387 51.9208C104.056 50.6697 104.774 50.1365 105.565 50.0666C106.357 49.9966 107.157 50.3956 108.035 51.5101C108.914 52.6279 109.799 54.3806 110.746 56.8044C112.636 61.6458 114.705 68.9896 117.479 78.8326L127.996 116.16C128.194 116.859 128.278 117.163 128.319 117.472C128.361 117.781 128.359 118.097 128.352 118.823L127.917 166.215L127.917 166.24C127.906 167.494 127.897 168.469 127.962 169.265C128.029 170.077 128.174 170.739 128.491 171.361C128.808 171.984 129.257 172.492 129.874 173.023C130.48 173.545 131.273 174.112 132.294 174.841L132.314 174.855L146.24 184.803C149.184 186.905 151.345 188.45 152.755 189.811C154.16 191.167 154.721 192.248 154.647 193.414C154.574 194.58 153.88 195.582 152.316 196.75C150.746 197.922 148.407 199.183 145.222 200.898Z" fill="url(#paint1_linear_11_109)" stroke="black"/>
<path d="M145.222 200.898L111.446 219.084C109.892 219.92 108.763 220.527 107.823 220.902C106.895 221.273 106.197 221.397 105.509 221.304C104.82 221.21 104.181 220.905 103.384 220.301C102.578 219.689 101.651 218.804 100.376 217.585L71.5172 189.984C70.3558 188.874 69.5139 188.068 68.9166 187.359C68.3271 186.659 68.0067 186.089 67.8632 185.465C67.7198 184.84 67.7596 184.187 67.9851 183.3C68.2136 182.402 68.6197 181.31 69.1805 179.804L95.7775 108.381L95.7904 108.347C96.0044 107.772 96.1279 107.441 96.2081 107.094C96.2883 106.748 96.3231 106.395 96.3832 105.785L96.3869 105.748L98.8809 80.4761C99.8852 70.2993 100.635 62.7063 101.647 57.6085C102.153 55.0563 102.717 53.1756 103.387 51.9208C104.056 50.6697 104.774 50.1365 105.565 50.0666C106.357 49.9966 107.157 50.3956 108.035 51.5101C108.914 52.6279 109.799 54.3806 110.746 56.8044C112.636 61.6458 114.706 68.9896 117.479 78.8326L127.996 116.16C128.194 116.859 128.278 117.163 128.319 117.472C128.361 117.781 128.359 118.097 128.352 118.823L127.917 166.215L127.917 166.239C127.906 167.494 127.897 168.469 127.962 169.265C128.029 170.077 128.174 170.739 128.491 171.361C128.808 171.984 129.257 172.492 129.874 173.023C130.48 173.545 131.273 174.112 132.294 174.841L132.314 174.855L146.24 184.803C149.184 186.905 151.345 188.45 152.755 189.811C154.16 191.167 154.721 192.248 154.648 193.414C154.574 194.58 153.88 195.582 152.316 196.75C150.746 197.922 148.408 199.183 145.222 200.898Z" fill="url(#paint2_linear_11_109)" stroke="black"/>
<path d="M91.9841 101L96.2965 106.61" stroke="black"/>
<path d="M131.956 114.019C132.188 113.869 132.254 113.56 132.104 113.328C131.953 113.096 131.644 113.03 131.412 113.18L131.956 114.019ZM128.256 116.419L131.956 114.019L131.412 113.18L127.712 115.581L128.256 116.419Z" fill="black"/>
<line x1="51.4811" y1="174.945" x2="53.4811" y2="192.945" stroke="black"/>
<line x1="162.249" y1="187.424" x2="154.249" y2="192.424" stroke="black"/>
<line x1="135.36" y1="163.329" x2="128.36" y2="171.329" stroke="black"/>
<line x1="68.2194" y1="185.441" x2="53.2194" y2="193.441" stroke="black"/>
<line x1="104.49" y1="44.9019" x2="105.49" y2="49.9019" stroke="black"/>
<defs>
<filter id="filter0_d_11_109" x="29.0404" y="24.2625" width="154.024" height="218.188" filterUnits="userSpaceOnUse" color-interpolation-filters="sRGB">
<feFlood flood-opacity="0" result="BackgroundImageFix"/>
<feColorMatrix in="SourceAlpha" type="matrix" values="0 0 0 0 0 0 0 0 0 0 0 0 0 0 0 0 0 0 127 0" result="hardAlpha"/>
<feOffset/>
<feGaussianBlur stdDeviation="10"/>
<feComposite in2="hardAlpha" operator="out"/>
<feColorMatrix type="matrix" values="0 0 0 0 0 0 0 0 0 0.22 0 0 0 0 1 0 0 0 1 0"/>
<feBlend mode="normal" in2="BackgroundImageFix" result="effect1_dropShadow_11_109"/>
<feBlend mode="normal" in="SourceGraphic" in2="effect1_dropShadow_11_109" result="shape"/>
</filter>
<linearGradient id="paint0_linear_11_109" x1="105.57" y1="38.593" x2="105.57" y2="222.969" gradientUnits="userSpaceOnUse">
<stop stop-color="#FFD600" stop-opacity="0.29"/>
<stop offset="0.812302" stop-color="#DD2800" stop-opacity="0.866792"/>
<stop offset="0.9999" stop-color="#D50000"/>
<stop offset="1" stop-color="#0075FF" stop-opacity="0"/>
</linearGradient>
<linearGradient id="paint1_linear_11_109" x1="105.323" y1="55.4448" x2="105.322" y2="222.97" gradientUnits="userSpaceOnUse">
<stop stop-color="#FFD600"/>
<stop offset="0.9999" stop-color="#D50000"/>
<stop offset="1" stop-color="#0075FF" stop-opacity="0"/>
</linearGradient>
<linearGradient id="paint2_linear_11_109" x1="108.984" y1="73.5" x2="84.4841" y2="303.5" gradientUnits="userSpaceOnUse">
<stop offset="0.0601907" stop-color="#DE5353"/>
<stop offset="0.489903" stop-color="#FFEA2D"/>
<stop offset="0.638339" stop-color="#DD2701"/>
</linearGradient>
</defs>
</svg>
